<svg xmlns="http://www.w3.org/2000/svg" width="26" height="19" viewBox="0 0 15 11">
  <defs>
    <style>
      .cls-1 {
        fill: #ffffff;
        fill-rule: evenodd;
      }
    </style>
  </defs>
  <path id="ic-mail" class="cls-1" d="M420.661,4088a1.309,1.309,0,0,0,.877-0.31l-4.249-3.97c-0.1.07-.2,0.14-0.295,0.2q-0.477.33-.774,0.51a4.49,4.49,0,0,1-.791.38,2.5,2.5,0,0,1-.921.19h-0.016a2.5,2.5,0,0,1-.921-0.19,4.455,4.455,0,0,1-.791-0.38q-0.3-.18-0.775-0.51c-0.088-.06-0.187-0.13-0.293-0.2l-4.251,3.97a1.314,1.314,0,0,0,.878.31h12.322Zm-12.816-6.77a4.643,4.643,0,0,1-.845-0.68v6.03l3.746-3.49Q409.621,4082.355,407.845,4081.23Zm13.318,0q-1.71,1.08-2.907,1.86l3.744,3.49v-6.03A4.844,4.844,0,0,1,421.163,4081.23Zm-0.5-4.23H408.339a1.239,1.239,0,0,0-.992.41,1.506,1.506,0,0,0-.347,1.01,1.76,1.76,0,0,0,.46,1.07,4.111,4.111,0,0,0,.98.9q0.284,0.2,1.716,1.11c0.515,0.34.963,0.63,1.348,0.88,0.328,0.21.611,0.4,0.845,0.55a1,1,0,0,0,.125.08c0.06,0.04.137,0.09,0.231,0.16,0.181,0.12.332,0.22,0.452,0.29s0.265,0.16.435,0.26a3.2,3.2,0,0,0,.481.21,1.326,1.326,0,0,0,.419.07h0.016a1.321,1.321,0,0,0,.419-0.07,3.158,3.158,0,0,0,.481-0.21c0.171-.1.315-0.18,0.436-0.26s0.271-.17.452-0.29c0.094-.07.17-0.12,0.23-0.16a1.023,1.023,0,0,0,.126-0.08c0.182-.12.465-0.3,0.847-0.55,0.694-.45,1.716-1.11,3.07-1.99a4.006,4.006,0,0,0,1.021-.96,1.991,1.991,0,0,0,.41-1.18,1.155,1.155,0,0,0-.4-0.88A1.325,1.325,0,0,0,420.661,4077Z" transform="translate(-407 -4077)"/>
</svg>
