<svg xmlns="http://www.w3.org/2000/svg" width="44.529" height="44.52" viewBox="0 0 14.843 14.84">
  <defs>
    <style>
      .cls-1 {
        fill: #ed7e01;
        fill-rule: evenodd;
      }
    </style>
  </defs>
  <path id="ic-phone" class="cls-1" d="M419.451,4041.72H409.288a2.342,2.342,0,0,0-2.339,2.34v10.17a2.342,2.342,0,0,0,2.339,2.34h10.163a2.341,2.341,0,0,0,2.34-2.34v-10.17A2.341,2.341,0,0,0,419.451,4041.72Zm-5.305,1.55,0.163,2.56-0.591.18-0.284-2.81Zm2.538,11.6-2.593-.06a13.117,13.117,0,0,1-3.584-9.91l1.951-1.67h0.384l0.312,2.93-0.853.56,2.182,5.73,0.856-.28,1.64,2.45Zm0.823-.55-1.736-2.4,0.658-.29,1.513,2.26Z" transform="translate(-406.938 -4041.72)"/>
</svg>
